<svg width="531" height="128" viewBox="0 0 531 128" fill="none" xmlns="http://www.w3.org/2000/svg">
<path d="M57.4688 50.3438H54.9375C52.0781 50.3438 50.3438 50.1914 49.7344 49.8867L49.3477 46.4766C49.3477 48.2109 49.207 49.6406 48.9258 50.7656C47.8008 55.0312 44.7891 58.1602 39.8906 60.1523C36.4688 61.5586 32.3789 62.2734 27.6211 62.2969C23.7773 62.2969 20.3672 61.9102 17.3906 61.1367C12.2344 59.7539 8.20312 57.4453 5.29688 54.2109C2.34375 50.9531 0.867188 47.0508 0.867188 42.5039C0.867188 40.793 0.984375 39.1992 1.21875 37.7227C1.40625 36.1523 1.96875 33.9961 2.90625 31.2539L13.7695 33.2578C12.8555 35.9297 12.3281 37.8047 12.1875 38.8828C12.0234 40.0312 11.9414 41.2383 11.9414 42.5039C11.9414 44.8242 12.6445 46.7695 14.0508 48.3398C15.5508 50.0039 17.7656 51.2227 20.6953 51.9961C22.5234 52.4883 24.7031 52.7344 27.2344 52.7344H27.5859C30.6562 52.7344 33.1523 52.3359 35.0742 51.5391C36.7617 50.8594 37.7695 49.8984 38.0977 48.6562C38.2148 48.1875 38.2734 47.6953 38.2734 47.1797C38.2734 45.6562 37.7109 44.5312 36.5859 43.8047C35.7188 43.2422 34.0078 42.668 31.4531 42.082L28.3945 41.625L31.4883 32.4141C34.793 32.9062 37.3359 33.4805 39.1172 34.1367C40.7109 34.6289 42.0586 35.2031 43.1602 35.8594C43.6758 36.1172 44.4961 36.5391 45.6211 37.125C49.7461 39.5625 52.8516 40.7812 54.9375 40.7812H57.4688V50.3438ZM15.5625 69.4336C15.5625 68.7773 15.6914 68.1562 15.9492 67.5703C16.207 66.9844 16.5586 66.4688 17.0039 66.0234C17.4492 65.5781 17.9531 65.2266 18.5156 64.9688C19.1016 64.7344 19.7109 64.6172 20.3438 64.6172C20.9766 64.6172 21.5859 64.7344 22.1719 64.9688C22.7578 65.2266 23.2734 65.5781 23.7188 66.0234C24.1641 66.4688 24.5039 66.9844 24.7383 67.5703C24.9961 68.1562 25.125 68.7773 25.125 69.4336C25.125 70.1133 24.9961 70.7344 24.7383 71.2969C24.5039 71.8828 24.1641 72.3867 23.7188 72.8086C23.2734 73.2305 22.7578 73.5586 22.1719 73.793C21.5859 74.0508 20.9766 74.1797 20.3438 74.1797C19.7109 74.1797 19.1016 74.0508 18.5156 73.793C17.9531 73.5586 17.4492 73.2305 17.0039 72.8086C16.5586 72.3867 16.207 71.8828 15.9492 71.2969C15.6914 70.7344 15.5625 70.1133 15.5625 69.4336ZM26.8125 69.4336C26.8125 68.7773 26.9414 68.1562 27.1992 67.5703C27.457 66.9844 27.8086 66.4688 28.2539 66.0234C28.6992 65.5781 29.2031 65.2266 29.7656 64.9688C30.3516 64.7344 30.9609 64.6172 31.5938 64.6172C32.2266 64.6172 32.8359 64.7344 33.4219 64.9688C34.0078 65.2266 34.5234 65.5781 34.9688 66.0234C35.4141 66.4688 35.7539 66.9844 35.9883 67.5703C36.2461 68.1562 36.375 68.7773 36.375 69.4336C36.375 70.1133 36.2461 70.7344 35.9883 71.2969C35.7539 71.8828 35.4141 72.3867 34.9688 72.8086C34.5234 73.2305 34.0078 73.5586 33.4219 73.793C32.8359 74.0508 32.2266 74.1797 31.5938 74.1797C30.9609 74.1797 30.3516 74.0508 29.7656 73.793C29.2031 73.5586 28.6992 73.2305 28.2539 72.8086C27.8086 72.3867 27.457 71.8828 27.1992 71.2969C26.9414 70.7344 26.8125 70.1133 26.8125 69.4336Z" fill="#1D303B"/>
<path d="M76.5586 40.7812V50.3438H55.7461V40.7812H76.5586Z" fill="#1D303B"/>
<path d="M95.6133 40.7812V50.3438H74.8008V40.7812H95.6133Z" fill="#1D303B"/>
<path d="M124.336 31.2891C124.336 27.7734 123.539 25.1836 121.945 23.5195C120.609 22.0898 118.629 21.375 116.004 21.375C113.426 21.375 111.469 22.0898 110.133 23.5195C108.516 25.2305 107.707 27.8203 107.707 31.2891C107.707 34.3828 108.527 36.7734 110.168 38.4609C111.668 40.0078 113.602 40.7812 115.969 40.7812C118.453 40.7812 120.422 40.0312 121.875 38.5312C123.516 36.8438 124.336 34.4297 124.336 31.2891ZM97.8281 40.7812C100.383 43.3125 101.66 44.5898 101.66 44.6133C98.3086 41.1445 96.6328 36.7031 96.6328 31.2891C96.6328 25.5234 98.25 20.9297 101.484 17.5078C105.07 13.7109 109.91 11.8125 116.004 11.8125C122.145 11.8125 126.996 13.6992 130.559 17.4727C133.793 20.8945 135.41 25.5 135.41 31.2891C135.41 36.7734 133.723 41.2383 130.348 44.6836C126.691 48.457 121.898 50.3438 115.969 50.3438H93.8555V40.7812H97.8281Z" fill="#1D303B"/>
<path d="M157.91 60.3984C160.77 57.7734 162.668 55.8867 163.605 54.7383C164.566 53.5898 165.293 52.5586 165.785 51.6445L166.523 50.3438H162.516C156.633 50.3438 151.863 48.4336 148.207 44.6133C144.855 41.1445 143.18 36.7031 143.18 31.2891C143.18 25.5469 144.797 20.9531 148.031 17.5078C151.594 13.7578 156.434 11.8711 162.551 11.8477H162.656C166.102 11.8477 169.195 12.457 171.938 13.6758C176.32 15.5742 178.512 18.4219 178.512 22.2188V42.8203C178.512 47.6016 177.375 51.8906 175.102 55.6875C174.305 57.1875 173.238 58.7461 171.902 60.3633C170.684 61.8164 168.75 63.7617 166.102 66.1992L157.91 60.3984ZM167.438 23.2734C167.438 22.6172 167.25 22.2422 166.875 22.1484C165.68 21.6328 164.273 21.375 162.656 21.375H162.551C159.973 21.375 158.004 22.1016 156.645 23.5547C155.051 25.2422 154.254 27.8203 154.254 31.2891C154.254 34.3828 155.074 36.7734 156.715 38.4609C158.215 40.0078 160.969 40.7812 164.977 40.7812V40.8164H167.438V23.2734Z" fill="#1D303B"/>
<path d="M192.188 50.3438C189.633 50.3438 187.289 49.8867 185.156 48.9727L182.414 47.7773L186.492 37.5469C188.273 39.1875 189.492 40.1484 190.148 40.4297C190.688 40.6641 191.367 40.7812 192.188 40.7812L201.434 40.8164L201.293 39.7617C200.59 33.3164 199.723 28.8867 198.691 26.4727C197.238 23.0742 194.004 21.375 188.988 21.375V11.8125C198.574 11.8125 204.996 14.9062 208.254 21.0938C210.059 24.5391 211.418 30.4453 212.332 38.8125L212.543 40.7812H215.109V50.3438H192.188Z" fill="#1D303B"/>
<path d="M234.199 40.7812V50.3438H213.387V40.7812H234.199Z" fill="#1D303B"/>
<path d="M253.254 40.7812V50.3438H232.441V40.7812H253.254Z" fill="#1D303B"/>
<path d="M272.309 40.7812V50.3438H251.496V40.7812H272.309Z" fill="#1D303B"/>
<path d="M291.363 40.7812V50.3438H270.551V40.7812H291.363Z" fill="#1D303B"/>
<path d="M299.414 9.94922C299.414 9.29297 299.543 8.67188 299.801 8.08594C300.059 7.5 300.41 6.98438 300.855 6.53906C301.301 6.09375 301.805 5.75391 302.367 5.51953C302.953 5.26172 303.562 5.13281 304.195 5.13281C304.828 5.13281 305.438 5.26172 306.023 5.51953C306.609 5.75391 307.125 6.09375 307.57 6.53906C308.016 6.98438 308.355 7.5 308.59 8.08594C308.848 8.67188 308.977 9.29297 308.977 9.94922C308.977 10.6289 308.848 11.2617 308.59 11.8477C308.355 12.4102 308.016 12.9023 307.57 13.3242C307.125 13.7461 306.609 14.0859 306.023 14.3438C305.438 14.5781 304.828 14.6953 304.195 14.6953C303.562 14.6953 302.953 14.5781 302.367 14.3438C301.805 14.0859 301.301 13.7461 300.855 13.3242C300.41 12.9023 300.059 12.4102 299.801 11.8477C299.543 11.2617 299.414 10.6289 299.414 9.94922ZM289.605 50.3438V40.7812H294.281C295.688 40.7812 296.789 40.3711 297.586 39.5508C298.57 38.543 299.062 37.0078 299.062 34.9453V18.1406H310.172V35.6133C310.266 37.3008 310.746 38.6016 311.613 39.5156C312.434 40.3594 313.5 40.7812 314.812 40.7812H319.629V50.3438H314.812C310.008 50.3438 306.609 49.2891 304.617 47.1797C302.602 49.2891 299.156 50.3438 294.281 50.3438H289.605Z" fill="#1D303B"/>
<path d="M362.379 40.7812C364.723 40.7812 366.645 40.0078 368.145 38.4609C369.785 36.7734 370.605 34.3828 370.605 31.2891C370.605 27.8203 369.809 25.2305 368.215 23.5195C366.855 22.0898 364.887 21.375 362.309 21.375H342.797C340.219 21.375 338.25 22.0898 336.891 23.5195C335.297 25.2305 334.5 27.8203 334.5 31.2891V40.7812H362.379ZM323.32 40.7812V29.7422C323.227 24.375 322.277 20.3438 320.473 17.6484L329.754 12.0586L331.688 17.5078C333.281 13.7578 336.984 11.8594 342.797 11.8125H362.309C368.426 11.8125 373.266 13.7109 376.828 17.5078C380.062 20.9297 381.68 25.5234 381.68 31.2891C381.68 36.7031 380.004 41.1445 376.652 44.6133C372.996 48.4336 368.238 50.3438 362.379 50.3438H317.871V40.7812H323.32Z" fill="#1D303B"/>
<path d="M50.3242 89.2773V77.1133C50.3242 74.8398 51.1211 72.9062 52.7148 71.3125C54.3086 69.6953 56.2188 68.8867 58.4453 68.8867H85.5859V77.6055H62.2773C61.5977 77.6055 61.0117 77.8516 60.5195 78.3438C60.0508 78.8125 59.8164 79.3867 59.8164 80.0664V85.1641C59.8164 85.8438 60.0508 86.4297 60.5195 86.9219C61.0117 87.3906 61.5977 87.625 62.2773 87.625L79.6797 87.6953C81.8125 87.8828 83.6055 88.7617 85.0586 90.332C86.5352 91.8789 87.2734 93.707 87.2734 95.8164V109.809C87.2734 112.082 86.4648 114.016 84.8477 115.609C83.2539 117.203 81.3203 118 79.0469 118H51.168V109.281H75.3203C76 109.281 76.5742 109.047 77.043 108.578C77.5117 108.109 77.7461 107.535 77.7461 106.855V99.9297C77.7461 99.2266 77.5117 98.6289 77.043 98.1367C76.5742 97.6445 76 97.3984 75.3203 97.3984H57.8125C55.6797 97.2344 53.8984 96.3789 52.4688 94.832C51.0391 93.2617 50.3242 91.4102 50.3242 89.2773Z" fill="#1D303B"/>
<path d="M95.8867 102.953V68.8164H105.449V102.391C105.449 104.453 106.164 106.211 107.594 107.664C109.047 109.094 110.781 109.809 112.797 109.809H119.934C121.996 109.809 123.73 109.094 125.137 107.664C126.566 106.211 127.281 104.453 127.281 102.391V68.8164H136.844V102.953C136.844 107.242 135.32 110.91 132.273 113.957C129.25 116.98 125.594 118.492 121.305 118.492H111.426C107.137 118.492 103.469 116.98 100.422 113.957C97.3984 110.91 95.8867 107.242 95.8867 102.953Z" fill="#1D303B"/>
<path d="M145.879 117.93V68.8164H155.688L177.836 101.441V68.8164H187.363V117.93H177.555L155.371 85.375V117.93H145.879Z" fill="#1D303B"/>
<path d="M196.715 118V68.8867H222.062C226.352 68.8867 230.008 70.4102 233.031 73.457C236.078 76.5039 237.602 80.1719 237.602 84.4609V102.461C237.602 106.773 236.078 110.441 233.031 113.465C230.008 116.488 226.352 118 222.062 118H196.715ZM206.207 109.281H220.551C222.613 109.281 224.359 108.566 225.789 107.137C227.242 105.684 227.969 103.949 227.969 101.934V85.0234C227.969 82.9609 227.242 81.2148 225.789 79.7852C224.359 78.332 222.613 77.6055 220.551 77.6055H206.207V109.281Z" fill="#1D303B"/>
<path d="M245.934 102.953V68.8164H255.496V102.391C255.496 104.453 256.211 106.211 257.641 107.664C259.094 109.094 260.828 109.809 262.844 109.809H269.98C272.043 109.809 273.777 109.094 275.184 107.664C276.613 106.211 277.328 104.453 277.328 102.391V68.8164H286.891V102.953C286.891 107.242 285.367 110.91 282.32 113.957C279.297 116.98 275.641 118.492 271.352 118.492H261.473C257.184 118.492 253.516 116.98 250.469 113.957C247.445 110.91 245.934 107.242 245.934 102.953Z" fill="#1D303B"/>
<path d="M295.223 109.879V77.1133C295.223 74.8398 296.02 72.9062 297.613 71.3125C299.207 69.6953 301.141 68.8867 303.414 68.8867H327.953C330.227 68.8867 332.148 69.6953 333.719 71.3125C335.312 72.9062 336.109 74.8398 336.109 77.1133V109.879C336.109 111.707 335.547 113.359 334.422 114.836C333.297 116.289 331.844 117.273 330.062 117.789L336.109 127.879H324.789L318.883 118H303.414C301.141 118 299.207 117.215 297.613 115.645C296.02 114.074 295.223 112.152 295.223 109.879ZM304.715 106.855C304.715 107.535 304.961 108.109 305.453 108.578C305.945 109.047 306.543 109.281 307.246 109.281H324.156C324.836 109.281 325.41 109.047 325.879 108.578C326.371 108.109 326.617 107.535 326.617 106.855V80.1367C326.617 79.457 326.371 78.8711 325.879 78.3789C325.41 77.8633 324.836 77.6055 324.156 77.6055H307.246C306.566 77.6055 305.969 77.8633 305.453 78.3789C304.961 78.8711 304.715 79.457 304.715 80.1367V106.855Z" fill="#1D303B"/>
<path d="M338.922 68.8164H350.102L359.945 85.375L369.895 68.8164H379.844L364.129 94.7266V118H354.637V94.7266L338.922 68.8164Z" fill="#1D303B"/>
<path d="M2.13989 103.84H13.3399V106.6H9.29989V118H6.17989V106.6H2.13989V103.84Z" fill="#07ABF1"/>
<path d="M14.9243 103.84H19.6443L22.9043 113.08H22.9443L26.2243 103.84H30.9243V118H27.8043V107.14H27.7643L24.0443 118H21.6643L18.0843 107.14H18.0443V118H14.9243V103.84Z" fill="#07ABF1"/>
<circle cx="304" cy="10" r="5" fill="#FE531F"/>
<circle cx="120" cy="5" r="5" fill="#FE531F"/>
<circle cx="109" cy="5" r="5" fill="#FE531F"/>
<path d="M402.5 40.1067C402.5 17.9564 420.456 0 442.607 0H490.393C512.544 0 530.5 17.9564 530.5 40.1067V87.8933C530.5 110.044 512.544 128 490.393 128H442.607C420.456 128 402.5 110.044 402.5 87.8933V40.1067Z" fill="#1D303B"/>
<path d="M467.65 56.062C473.357 48.8796 476.802 39.7788 476.892 29.8667H461.202C460.993 44.3702 449.309 56.062 434.927 56.062V71.938L465.348 71.938C459.641 79.1204 456.196 88.2212 456.106 98.1333H471.796C472.006 83.6298 483.689 71.938 498.072 71.938H498.073V56.062H467.65Z" fill="#07ABF1"/>
</svg>
