<svg width="129" height="128" viewBox="0 0 129 128" fill="none" xmlns="http://www.w3.org/2000/svg">
<path d="M0.5 40.1067C0.5 17.9564 18.4564 0 40.6067 0H88.3933C110.544 0 128.5 17.9564 128.5 40.1067V87.8933C128.5 110.044 110.544 128 88.3933 128H40.6067C18.4564 128 0.5 110.044 0.5 87.8933V40.1067Z" fill="#1D303B"/>
<path d="M65.6498 56.062C71.3568 48.8796 74.8022 39.7788 74.8919 29.8667H59.2022C58.9925 44.3702 47.3089 56.062 32.9267 56.062V71.938V71.938L63.3485 71.938C57.6414 79.1204 54.196 88.2212 54.1063 98.1333H69.796C70.0057 83.6298 81.6893 71.938 96.0715 71.938H96.0733V56.062H65.6498Z" fill="#07ABF1"/>
</svg>
